<svg xmlns="http://www.w3.org/2000/svg" width="197" height="37" fill="none"><path fill="#fff" d="M11.977 29.045H0v-5.277h11.977c.359 0 .666-.13.922-.388.256-.259.384-.57.384-.932 0-.375-.128-.62-.384-.737a2.213 2.213 0 0 0-.922-.175h-5.45c-.91 0-1.76-.174-2.554-.523A6.659 6.659 0 0 1 1.9 19.596a6.982 6.982 0 0 1-1.4-2.115 6.667 6.667 0 0 1-.5-2.58c0-.918.166-1.779.5-2.58.345-.803.812-1.501 1.4-2.096a6.393 6.393 0 0 1 2.073-1.397 6.265 6.265 0 0 1 2.553-.524h10.615v5.277H6.526c-.358 0-.665.13-.921.389-.256.258-.384.569-.384.93 0 .376.128.7.384.971.256.259.563.388.921.388h5.451c.896 0 1.74.155 2.534.466a6.262 6.262 0 0 1 2.073 1.26 6.001 6.001 0 0 1 1.92 4.463c0 .919-.173 1.779-.519 2.58a7.053 7.053 0 0 1-1.401 2.096 6.656 6.656 0 0 1-2.073 1.417 6.425 6.425 0 0 1-2.534.504ZM31.613 29.045a8.943 8.943 0 0 1-3.57-.718 9.641 9.641 0 0 1-2.937-1.998 9.76 9.76 0 0 1-1.977-2.969 9.211 9.211 0 0 1-.71-3.609v-6.17h-2.553V8.305h2.553V0h5.221v8.304h7.947v5.277H27.64v6.17c0 .557.102 1.08.307 1.572.205.479.486.899.845 1.261.358.362.78.653 1.266.873a3.93 3.93 0 0 0 1.555.31h3.974v5.278h-3.974ZM53.648 26.62c-.422.388-.876.756-1.362 1.106-.474.336-.973.634-1.498.892a9.079 9.079 0 0 1-1.631.582 6.192 6.192 0 0 1-1.69.233 9.387 9.387 0 0 1-3.57-.679 8.99 8.99 0 0 1-2.936-1.92c-.832-.841-1.49-1.857-1.977-3.047-.474-1.203-.71-2.548-.71-4.036V8.265h5.22v11.486c0 .699.103 1.326.308 1.883a4.26 4.26 0 0 0 .864 1.377c.358.375.774.66 1.247.854a4.156 4.156 0 0 0 1.555.29c.537 0 1.043-.122 1.516-.368a4.385 4.385 0 0 0 1.267-1.009c.358-.414.64-.88.845-1.397a4.49 4.49 0 0 0 .307-1.63V8.265h5.24v20.78h-1.267l-1.727-2.425ZM80.52 29.045h-1.266l-2.035-2.852c-.499.453-1.03.88-1.593 1.28-.55.389-1.132.731-1.747 1.029-.614.284-1.247.51-1.9.679a7.668 7.668 0 0 1-1.958.252c-1.446 0-2.808-.271-4.088-.815a10.707 10.707 0 0 1-3.34-2.29 11.003 11.003 0 0 1-2.246-3.472c-.55-1.345-.825-2.807-.825-4.385 0-1.565.275-3.02.825-4.366.55-1.345 1.3-2.509 2.246-3.492a10.55 10.55 0 0 1 3.34-2.309 10.145 10.145 0 0 1 4.088-.834c.461 0 .934.039 1.42.116.5.078.98.207 1.44.388.474.168.915.395 1.325.68.41.284.755.633 1.036 1.047V0h5.279v29.045Zm-5.278-10.574c0-.724-.14-1.423-.422-2.096a5.753 5.753 0 0 0-1.113-1.804 5.344 5.344 0 0 0-1.67-1.261 4.334 4.334 0 0 0-2.016-.485c-.716 0-1.394.13-2.034.388a4.823 4.823 0 0 0-1.65 1.125c-.462.479-.826 1.067-1.095 1.766-.269.698-.403 1.487-.403 2.367a5.9 5.9 0 0 0 .403 2.173 5.949 5.949 0 0 0 1.094 1.804 5.295 5.295 0 0 0 1.65 1.223c.64.297 1.319.446 2.035.446.717 0 1.389-.155 2.016-.466a5.77 5.77 0 0 0 1.67-1.26 6.064 6.064 0 0 0 1.113-1.805c.282-.686.422-1.39.422-2.115ZM89.485 36.961v-5.335l2.917.038c.512 0 1.005-.084 1.478-.252a4.889 4.889 0 0 0 1.305-.698 4.97 4.97 0 0 0 1.075-1.067c.307-.401.557-.841.749-1.32-.576.246-1.165.492-1.766.737a4.596 4.596 0 0 1-1.785.37 9.386 9.386 0 0 1-3.57-.68 8.99 8.99 0 0 1-2.937-1.92c-.832-.841-1.49-1.857-1.977-3.047-.474-1.203-.71-2.548-.71-4.036V8.265h5.22v11.486c0 .738.103 1.384.308 1.94a4.26 4.26 0 0 0 .863 1.378 3.49 3.49 0 0 0 1.248.815 4.418 4.418 0 0 0 1.555.272c.537 0 1.043-.123 1.516-.369a4.384 4.384 0 0 0 1.267-1.009c.358-.414.64-.88.845-1.397a4.49 4.49 0 0 0 .307-1.63V8.265h5.278v18.16a10.554 10.554 0 0 1-.844 4.114 10.621 10.621 0 0 1-2.265 3.357 10.638 10.638 0 0 1-3.321 2.27 10.01 10.01 0 0 1-4.07.834l-2.686-.039Z"/><path fill="#18A0FB" d="M117.969 29.045h-11.977v-5.277h11.977c.358 0 .666-.13.921-.388.256-.259.384-.57.384-.932 0-.375-.128-.62-.384-.737-.255-.116-.563-.175-.921-.175h-5.451c-.909 0-1.76-.174-2.553-.523a6.668 6.668 0 0 1-2.073-1.417 6.965 6.965 0 0 1-1.401-2.115 6.661 6.661 0 0 1-.499-2.58c0-.918.166-1.779.499-2.58a6.72 6.72 0 0 1 1.401-2.096 6.401 6.401 0 0 1 2.073-1.397 6.263 6.263 0 0 1 2.553-.524h10.614v5.277h-10.614c-.358 0-.665.13-.921.389-.256.258-.384.569-.384.93 0 .376.128.7.384.971.256.259.563.388.921.388h5.451c.896 0 1.74.155 2.534.466a6.27 6.27 0 0 1 2.073 1.26 6.002 6.002 0 0 1 1.919 4.463c0 .919-.172 1.779-.518 2.58a7.054 7.054 0 0 1-1.401 2.096 6.666 6.666 0 0 1-2.073 1.417 6.427 6.427 0 0 1-2.534.504ZM135.475 23.962c.204.064.409.11.614.136.204.012.409.019.614.019.512 0 1.004-.071 1.478-.213a5.347 5.347 0 0 0 1.324-.602 5.156 5.156 0 0 0 1.92-2.25l3.839 3.9a10.275 10.275 0 0 1-1.689 1.881 10.222 10.222 0 0 1-2.054 1.417c-.73.388-1.504.679-2.323.873a9.992 9.992 0 0 1-2.495.31c-1.446 0-2.809-.271-4.088-.815a10.43 10.43 0 0 1-3.34-2.27c-.947-.97-1.696-2.121-2.246-3.453-.55-1.346-.825-2.82-.825-4.424 0-1.643.275-3.143.825-4.501.55-1.359 1.299-2.516 2.246-3.473.959-.958 2.073-1.701 3.34-2.232a10.567 10.567 0 0 1 4.088-.795 10.292 10.292 0 0 1 4.837 1.203c.742.388 1.433.866 2.073 1.435.64.557 1.203 1.184 1.689 1.883l-9.827 11.97Zm2.687-10.924a2.991 2.991 0 0 0-.73-.174 6.521 6.521 0 0 0-.729-.04c-.717 0-1.395.137-2.035.408a4.816 4.816 0 0 0-1.65 1.126 5.407 5.407 0 0 0-1.094 1.785c-.269.685-.404 1.461-.404 2.328 0 .194.007.414.02.66.025.245.057.498.096.756.051.246.108.485.172.718.064.233.148.44.25.621l6.104-8.188ZM158.258 29.045a8.944 8.944 0 0 1-3.57-.718 9.652 9.652 0 0 1-2.937-1.998 9.787 9.787 0 0 1-1.977-2.969 9.218 9.218 0 0 1-.71-3.609v-6.17h-2.553V8.305h2.553V0h5.221v8.304h7.947v5.277h-7.947v6.17c0 .557.102 1.08.307 1.572.205.479.486.899.845 1.261.358.362.78.653 1.267.873.486.207 1.004.31 1.554.31h3.974v5.278h-3.974ZM176.474 29.045h-11.977v-5.277h11.977c.358 0 .665-.13.921-.388.256-.259.384-.57.384-.932 0-.375-.128-.62-.384-.737a2.213 2.213 0 0 0-.921-.175h-5.451c-.909 0-1.76-.174-2.553-.523a6.644 6.644 0 0 1-2.073-1.417 6.965 6.965 0 0 1-1.401-2.115 6.661 6.661 0 0 1-.499-2.58c0-.918.166-1.779.499-2.58a6.72 6.72 0 0 1 1.401-2.096 6.38 6.38 0 0 1 2.073-1.397 6.263 6.263 0 0 1 2.553-.524h10.614v5.277h-10.614c-.359 0-.666.13-.922.389-.256.258-.384.569-.384.93 0 .376.128.7.384.971.256.259.563.388.922.388h5.451c.896 0 1.74.155 2.534.466a6.27 6.27 0 0 1 2.073 1.26A6.005 6.005 0 0 1 183 22.448a6.46 6.46 0 0 1-.518 2.582 7.073 7.073 0 0 1-1.401 2.095 6.666 6.666 0 0 1-2.073 1.417 6.427 6.427 0 0 1-2.534.504Z"/><path fill="#0B0C12" stroke="#F5F7FA" stroke-linecap="round" stroke-linejoin="round" stroke-width="2.111" d="m195.778 28-7.389-5.278L181 28V11.111A2.11 2.11 0 0 1 183.111 9h10.556a2.111 2.111 0 0 1 2.111 2.111v16.89Z"/></svg>